# xmcd CD database file
#
# Track frame offsets:
#	150
#	14172
#	34782
#	51945
#	68597
#	84932
#	100987
#	118757
#
# Disc length: 1811 seconds
#
# Revision: 0
# Processed by: cddbd v1.5.1PL2 Copyright (c) Steve Scherf et al.
# Submitted via: CDex 1.51
#
DISCID=65071108
DTITLE=Joe Diffie - Twice Upon A Hit - Disk 1
DYEAR=1997
DGENRE=Country
TTITLE0=Third Rock From The Sun
TTITLE1=John Deere Green
TTITLE2=Prop Me Up Beside The Jukebox (If I Die)
TTITLE3=Ships That Don't Come In
TTITLE4=Pickup Man
TTITLE5=So Help Me Girl
TTITLE6=Bigger Than The Beatles
TTITLE7=Honky Tonk Attitude
EXTD=YEAR: 1997
EXTT0=
EXTT1=
EXTT2=
EXTT3=
EXTT4=
EXTT5=
EXTT6=
EXTT7=
PLAYORDER=
